<svg width="150" height="100" viewBox="0 0 150 100" fill="none" xmlns="http://www.w3.org/2000/svg">
<g clip-path="url(#clip0_144_3)">
<path d="M148.444 44.2975C145.894 53.811 141.496 62.7293 135.501 70.5432C129.505 78.357 122.029 84.9134 113.499 89.8379C104.97 94.7625 95.5535 97.9588 85.7886 99.2444C76.0237 100.53 66.1012 99.8796 56.5877 97.3305C47.0742 94.7813 38.1559 90.3833 30.342 84.3875C22.5282 78.3918 15.9718 70.9157 11.0472 62.386C6.12264 53.8564 2.92633 44.4404 1.64076 34.6755C0.355188 24.9106 1.00554 14.9882 3.55469 5.47461L75.9991 24.886L148.444 44.2975Z" fill="url(#paint0_linear_144_3)"/>
<path fill-rule="evenodd" clip-rule="evenodd" d="M52.0147 54.6527C52.6466 54.1119 53.4762 53.8412 54.3211 53.9002C55.166 53.9592 55.957 54.3431 56.5201 54.9674C59.1242 57.8534 62.5342 59.9348 66.3209 60.9494C70.1075 61.9641 74.1014 61.8666 77.7996 60.6692C78.1969 60.5357 78.6185 60.4808 79.04 60.5077C79.4614 60.5346 79.8744 60.6427 80.2551 60.8259C80.6357 61.009 80.9763 61.2636 81.2573 61.5747C81.5383 61.8859 81.754 62.2475 81.8921 62.6386C82.0301 63.0297 82.0876 63.4426 82.0613 63.8533C82.035 64.2641 81.9254 64.6645 81.7389 65.0314C81.5524 65.3983 81.2926 65.7245 80.9747 65.991C80.6567 66.2575 80.2869 66.459 79.8865 66.5839C74.9976 68.167 69.7177 68.2961 64.7117 66.9547C59.7058 65.6134 55.1978 62.8617 51.7554 59.0462C51.1924 58.4219 50.9034 57.6082 50.9521 56.7843C51.0007 55.9604 51.3829 55.1937 52.0147 54.6527Z" fill="white"/>
<circle cx="51.6225" cy="19.2702" r="19" transform="rotate(15 51.6225 19.2702)" fill="white"/>
<circle cx="51.6217" cy="19.2706" r="8" transform="rotate(15 51.6217 19.2706)" fill="black"/>
<circle cx="99.9194" cy="32.2116" r="19" transform="rotate(15 99.9194 32.2116)" fill="white"/>
<circle cx="99.9186" cy="32.212" r="8" transform="rotate(15 99.9186 32.212)" fill="black"/>
</g>
<defs>
<linearGradient id="paint0_linear_144_3" x1="63.8557" y1="133.959" x2="164.232" y2="-14.6249" gradientUnits="userSpaceOnUse">
<stop stop-color="#F32401"/>
<stop offset="0.524038" stop-color="#FF4AD5"/>
<stop offset="0.923502" stop-color="#8701E6"/>
</linearGradient>
<clipPath id="clip0_144_3">
<rect width="149" height="100" fill="white" transform="translate(0.142578)"/>
</clipPath>
</defs>
</svg>
