<svg width="164" height="48" viewBox="0 0 164 48" fill="none" xmlns="http://www.w3.org/2000/svg">
<path d="M24 0C32.1763 0 39.3961 4.08972 43.7295 10.334L0 24L43.7295 37.665C39.3962 43.9097 32.1766 48 24 48C10.7452 48 0 37.2548 0 24C0 10.7452 10.7452 0 24 0Z" fill="url(#paint0_linear_145_4)"/>
<path d="M63.6154 21.3622H60.9592C60.8834 20.9266 60.7437 20.5407 60.5401 20.2045C60.3365 19.8636 60.0832 19.5748 59.7802 19.3381C59.4772 19.1013 59.1315 18.9238 58.7433 18.8054C58.3597 18.6823 57.9454 18.6207 57.5004 18.6207C56.7096 18.6207 56.0089 18.8196 55.3981 19.2173C54.7873 19.6103 54.3091 20.188 53.9634 20.9503C53.6178 21.7079 53.445 22.6335 53.445 23.7273C53.445 24.84 53.6178 25.7775 53.9634 26.5398C54.3138 27.2973 54.792 27.8703 55.3981 28.2585C56.0089 28.642 56.7073 28.8338 57.4933 28.8338C57.9289 28.8338 58.3361 28.777 58.7148 28.6634C59.0984 28.545 59.4416 28.3722 59.7447 28.1449C60.0524 27.9176 60.3105 27.6383 60.5188 27.3068C60.7319 26.9754 60.8787 26.5966 60.9592 26.1705L63.6154 26.1847C63.516 26.8759 63.3005 27.5246 62.9691 28.1307C62.6424 28.7367 62.2139 29.2718 61.6836 29.7358C61.1533 30.1951 60.533 30.5549 59.8228 30.8153C59.1126 31.071 58.3242 31.1989 57.4577 31.1989C56.1793 31.1989 55.0382 30.9029 54.0344 30.3111C53.0307 29.7192 52.2399 28.8646 51.6623 27.7472C51.0846 26.6297 50.7958 25.2898 50.7958 23.7273C50.7958 22.16 51.087 20.8201 51.6694 19.7074C52.2518 18.59 53.0449 17.7353 54.0487 17.1435C55.0524 16.5516 56.1888 16.2557 57.4577 16.2557C58.2674 16.2557 59.0202 16.3693 59.7163 16.5966C60.4123 16.8239 61.0326 17.1577 61.5771 17.598C62.1216 18.0336 62.569 18.5687 62.9194 19.2031C63.2745 19.8329 63.5065 20.5526 63.6154 21.3622ZM70.0733 31.2131C69.008 31.2131 68.0847 30.9787 67.3034 30.5099C66.5222 30.0412 65.9161 29.3854 65.4852 28.5426C65.0591 27.6998 64.846 26.715 64.846 25.5881C64.846 24.4612 65.0591 23.474 65.4852 22.6264C65.9161 21.7789 66.5222 21.1207 67.3034 20.652C68.0847 20.1832 69.008 19.9489 70.0733 19.9489C71.1386 19.9489 72.0619 20.1832 72.8432 20.652C73.6244 21.1207 74.2281 21.7789 74.6543 22.6264C75.0851 23.474 75.3006 24.4612 75.3006 25.5881C75.3006 26.715 75.0851 27.6998 74.6543 28.5426C74.2281 29.3854 73.6244 30.0412 72.8432 30.5099C72.0619 30.9787 71.1386 31.2131 70.0733 31.2131ZM70.0875 29.1534C70.6652 29.1534 71.1481 28.9948 71.5364 28.6776C71.9246 28.3556 72.2134 27.9247 72.4028 27.3849C72.597 26.8452 72.694 26.2438 72.694 25.581C72.694 24.9134 72.597 24.3097 72.4028 23.7699C72.2134 23.2254 71.9246 22.7921 71.5364 22.4702C71.1481 22.1482 70.6652 21.9872 70.0875 21.9872C69.4956 21.9872 69.0032 22.1482 68.6102 22.4702C68.222 22.7921 67.9308 23.2254 67.7366 23.7699C67.5473 24.3097 67.4526 24.9134 67.4526 25.581C67.4526 26.2438 67.5473 26.8452 67.7366 27.3849C67.9308 27.9247 68.222 28.3556 68.6102 28.6776C69.0032 28.9948 69.4956 29.1534 70.0875 29.1534ZM79.4538 16.4545V31H76.8827V16.4545H79.4538ZM86.2561 31.2131C85.1908 31.2131 84.2675 30.9787 83.4862 30.5099C82.705 30.0412 82.0989 29.3854 81.668 28.5426C81.2419 27.6998 81.0288 26.715 81.0288 25.5881C81.0288 24.4612 81.2419 23.474 81.668 22.6264C82.0989 21.7789 82.705 21.1207 83.4862 20.652C84.2675 20.1832 85.1908 19.9489 86.2561 19.9489C87.3214 19.9489 88.2447 20.1832 89.026 20.652C89.8072 21.1207 90.4109 21.7789 90.8371 22.6264C91.2679 23.474 91.4834 24.4612 91.4834 25.5881C91.4834 26.715 91.2679 27.6998 90.8371 28.5426C90.4109 29.3854 89.8072 30.0412 89.026 30.5099C88.2447 30.9787 87.3214 31.2131 86.2561 31.2131ZM86.2703 29.1534C86.848 29.1534 87.3309 28.9948 87.7192 28.6776C88.1074 28.3556 88.3963 27.9247 88.5857 27.3849C88.7798 26.8452 88.8768 26.2438 88.8768 25.581C88.8768 24.9134 88.7798 24.3097 88.5857 23.7699C88.3963 23.2254 88.1074 22.7921 87.7192 22.4702C87.3309 22.1482 86.848 21.9872 86.2703 21.9872C85.6785 21.9872 85.186 22.1482 84.793 22.4702C84.4048 22.7921 84.1136 23.2254 83.9195 23.7699C83.7301 24.3097 83.6354 24.9134 83.6354 25.581C83.6354 26.2438 83.7301 26.8452 83.9195 27.3849C84.1136 27.9247 84.4048 28.3556 84.793 28.6776C85.186 28.9948 85.6785 29.1534 86.2703 29.1534ZM93.0656 31V20.0909H95.5585V21.9091H95.6721C95.871 21.2794 96.2119 20.794 96.6948 20.4531C97.1825 20.1075 97.7388 19.9347 98.3638 19.9347C98.5059 19.9347 98.6645 19.9418 98.8397 19.956C99.0196 19.9654 99.1688 19.982 99.2871 20.0057V22.3707C99.1782 22.3329 99.0054 22.2997 98.7687 22.2713C98.5367 22.2382 98.3118 22.2216 98.094 22.2216C97.6252 22.2216 97.2038 22.3234 96.8298 22.527C96.4604 22.7259 96.1692 23.0028 95.9562 23.358C95.7431 23.7131 95.6366 24.1226 95.6366 24.5866V31H93.0656ZM105.115 16.4545H107.728V26.6818C107.724 27.6193 107.525 28.4266 107.132 29.1037C106.739 29.776 106.19 30.2945 105.484 30.6591C104.783 31.0189 103.967 31.1989 103.034 31.1989C102.181 31.1989 101.414 31.0473 100.733 30.7443C100.056 30.4366 99.5181 29.982 99.1204 29.3807C98.7227 28.7794 98.5238 28.0312 98.5238 27.1364H101.145C101.149 27.5294 101.234 27.8679 101.4 28.152C101.571 28.4361 101.805 28.6539 102.103 28.8054C102.402 28.9569 102.745 29.0327 103.133 29.0327C103.555 29.0327 103.912 28.9451 104.206 28.7699C104.499 28.59 104.722 28.3248 104.873 27.9744C105.029 27.6241 105.11 27.1932 105.115 26.6818V16.4545ZM114.632 31.2131C113.567 31.2131 112.643 30.9787 111.862 30.5099C111.081 30.0412 110.475 29.3854 110.044 28.5426C109.618 27.6998 109.405 26.715 109.405 25.5881C109.405 24.4612 109.618 23.474 110.044 22.6264C110.475 21.7789 111.081 21.1207 111.862 20.652C112.643 20.1832 113.567 19.9489 114.632 19.9489C115.697 19.9489 116.621 20.1832 117.402 20.652C118.183 21.1207 118.787 21.7789 119.213 22.6264C119.644 23.474 119.859 24.4612 119.859 25.5881C119.859 26.715 119.644 27.6998 119.213 28.5426C118.787 29.3854 118.183 30.0412 117.402 30.5099C116.621 30.9787 115.697 31.2131 114.632 31.2131ZM114.646 29.1534C115.224 29.1534 115.707 28.9948 116.095 28.6776C116.483 28.3556 116.772 27.9247 116.961 27.3849C117.156 26.8452 117.253 26.2438 117.253 25.581C117.253 24.9134 117.156 24.3097 116.961 23.7699C116.772 23.2254 116.483 22.7921 116.095 22.4702C115.707 22.1482 115.224 21.9872 114.646 21.9872C114.054 21.9872 113.562 22.1482 113.169 22.4702C112.781 22.7921 112.489 23.2254 112.295 23.7699C112.106 24.3097 112.011 24.9134 112.011 25.581C112.011 26.2438 112.106 26.8452 112.295 27.3849C112.489 27.9247 112.781 28.3556 113.169 28.6776C113.562 28.9948 114.054 29.1534 114.646 29.1534ZM126.186 35.3182C125.262 35.3182 124.469 35.1927 123.806 34.9418C123.144 34.6955 122.611 34.3641 122.208 33.9474C121.806 33.5308 121.527 33.0691 121.37 32.5625L123.686 32.0014C123.79 32.2145 123.941 32.4252 124.14 32.6335C124.339 32.8466 124.607 33.0218 124.943 33.1591C125.284 33.3011 125.712 33.3722 126.228 33.3722C126.957 33.3722 127.561 33.1946 128.039 32.8395C128.518 32.4891 128.757 31.9115 128.757 31.1065V29.0398H128.629C128.496 29.3049 128.302 29.5772 128.046 29.8565C127.796 30.1359 127.462 30.3703 127.045 30.5597C126.633 30.7491 126.115 30.8438 125.49 30.8438C124.652 30.8438 123.892 30.6473 123.21 30.2543C122.533 29.8565 121.993 29.2647 121.59 28.4787C121.193 27.688 120.994 26.6984 120.994 25.5099C120.994 24.312 121.193 23.3011 121.59 22.4773C121.993 21.6487 122.535 21.0213 123.217 20.5952C123.899 20.1643 124.659 19.9489 125.497 19.9489C126.136 19.9489 126.662 20.0578 127.073 20.2756C127.49 20.4886 127.822 20.7467 128.068 21.0497C128.314 21.348 128.501 21.6297 128.629 21.8949H128.771V20.0909H131.306V31.1776C131.306 32.1103 131.084 32.8821 130.639 33.4929C130.194 34.1037 129.585 34.5606 128.813 34.8636C128.042 35.1667 127.166 35.3182 126.186 35.3182ZM126.207 28.8267C126.751 28.8267 127.215 28.6941 127.599 28.429C127.983 28.1638 128.274 27.7827 128.473 27.2855C128.671 26.7884 128.771 26.1918 128.771 25.4957C128.771 24.8092 128.671 24.2079 128.473 23.6918C128.278 23.1757 127.99 22.7756 127.606 22.4915C127.227 22.2027 126.761 22.0582 126.207 22.0582C125.634 22.0582 125.156 22.2074 124.772 22.5057C124.389 22.804 124.1 23.2135 123.906 23.7344C123.712 24.2505 123.615 24.8376 123.615 25.4957C123.615 26.1634 123.712 26.7481 123.906 27.25C124.105 27.7472 124.396 28.1354 124.779 28.4148C125.168 28.6894 125.644 28.8267 126.207 28.8267ZM138.086 35.3182C137.162 35.3182 136.369 35.1927 135.706 34.9418C135.044 34.6955 134.511 34.3641 134.108 33.9474C133.706 33.5308 133.427 33.0691 133.27 32.5625L135.586 32.0014C135.69 32.2145 135.841 32.4252 136.04 32.6335C136.239 32.8466 136.507 33.0218 136.843 33.1591C137.184 33.3011 137.612 33.3722 138.128 33.3722C138.857 33.3722 139.461 33.1946 139.939 32.8395C140.418 32.4891 140.657 31.9115 140.657 31.1065V29.0398H140.529C140.396 29.3049 140.202 29.5772 139.946 29.8565C139.695 30.1359 139.362 30.3703 138.945 30.5597C138.533 30.7491 138.015 30.8438 137.39 30.8438C136.552 30.8438 135.792 30.6473 135.11 30.2543C134.433 29.8565 133.893 29.2647 133.49 28.4787C133.093 27.688 132.894 26.6984 132.894 25.5099C132.894 24.312 133.093 23.3011 133.49 22.4773C133.893 21.6487 134.435 21.0213 135.117 20.5952C135.799 20.1643 136.559 19.9489 137.397 19.9489C138.036 19.9489 138.562 20.0578 138.973 20.2756C139.39 20.4886 139.722 20.7467 139.968 21.0497C140.214 21.348 140.401 21.6297 140.529 21.8949H140.671V20.0909H143.206V31.1776C143.206 32.1103 142.984 32.8821 142.539 33.4929C142.094 34.1037 141.485 34.5606 140.713 34.8636C139.942 35.1667 139.066 35.3182 138.086 35.3182ZM138.107 28.8267C138.651 28.8267 139.115 28.6941 139.499 28.429C139.883 28.1638 140.174 27.7827 140.373 27.2855C140.571 26.7884 140.671 26.1918 140.671 25.4957C140.671 24.8092 140.571 24.2079 140.373 23.6918C140.178 23.1757 139.89 22.7756 139.506 22.4915C139.127 22.2027 138.661 22.0582 138.107 22.0582C137.534 22.0582 137.056 22.2074 136.672 22.5057C136.289 22.804 136 23.2135 135.806 23.7344C135.612 24.2505 135.515 24.8376 135.515 25.4957C135.515 26.1634 135.612 26.7481 135.806 27.25C136.005 27.7472 136.296 28.1354 136.679 28.4148C137.068 28.6894 137.544 28.8267 138.107 28.8267ZM150.071 31.2131C148.977 31.2131 148.033 30.9858 147.237 30.5312C146.446 30.072 145.838 29.4233 145.412 28.5852C144.986 27.7424 144.773 26.7505 144.773 25.6094C144.773 24.4872 144.986 23.5024 145.412 22.6548C145.843 21.8026 146.444 21.1397 147.216 20.6662C147.988 20.188 148.894 19.9489 149.936 19.9489C150.608 19.9489 151.243 20.0578 151.839 20.2756C152.441 20.4886 152.971 20.8201 153.43 21.2699C153.894 21.7197 154.259 22.2926 154.524 22.9886C154.789 23.6799 154.922 24.5038 154.922 25.4602V26.2486H145.98V24.5156H152.457C152.453 24.0232 152.346 23.5852 152.138 23.2017C151.929 22.8134 151.638 22.508 151.264 22.2855C150.895 22.063 150.464 21.9517 149.971 21.9517C149.446 21.9517 148.984 22.0795 148.587 22.3352C148.189 22.5862 147.879 22.9176 147.656 23.3295C147.438 23.7367 147.327 24.1842 147.322 24.6719V26.1847C147.322 26.8191 147.438 27.3636 147.67 27.8182C147.902 28.268 148.227 28.6136 148.643 28.8551C149.06 29.0919 149.548 29.2102 150.106 29.2102C150.48 29.2102 150.819 29.1581 151.122 29.054C151.425 28.9451 151.688 28.7865 151.91 28.5781C152.133 28.3698 152.301 28.1117 152.415 27.804L154.815 28.0739C154.664 28.7083 154.375 29.2623 153.949 29.7358C153.527 30.2045 152.988 30.5691 152.329 30.8295C151.671 31.0852 150.918 31.2131 150.071 31.2131ZM156.497 31V20.0909H158.99V21.9091H159.103C159.302 21.2794 159.643 20.794 160.126 20.4531C160.614 20.1075 161.17 19.9347 161.795 19.9347C161.937 19.9347 162.096 19.9418 162.271 19.956C162.451 19.9654 162.6 19.982 162.718 20.0057V22.3707C162.609 22.3329 162.437 22.2997 162.2 22.2713C161.968 22.2382 161.743 22.2216 161.525 22.2216C161.056 22.2216 160.635 22.3234 160.261 22.527C159.892 22.7259 159.6 23.0028 159.387 23.358C159.174 23.7131 159.068 24.1226 159.068 24.5866V31H156.497Z" fill="black"/>
<defs>
<linearGradient id="paint0_linear_145_4" x1="29.28" y1="58.72" x2="48" y2="4.48" gradientUnits="userSpaceOnUse">
<stop stop-color="#F32401"/>
<stop offset="0.524038" stop-color="#FF4AD5"/>
<stop offset="0.923502" stop-color="#8701E6"/>
</linearGradient>
</defs>
</svg>
