<svg width="8" height="12" viewBox="0 0 8 12" fill="none" xmlns="http://www.w3.org/2000/svg">
<path d="M3.64253 0.456735C3.89481 0.290289 4.23786 0.317687 4.45991 0.539743L7.45991 3.53974L7.54292 3.64228C7.70937 3.89456 7.68197 4.23761 7.45991 4.45966C7.23786 4.68172 6.89481 4.70912 6.64253 4.54267L6.53999 4.45966L4.65034 2.57002V8.92939L6.53999 7.03974C6.79383 6.7859 7.20607 6.7859 7.45991 7.03974C7.71375 7.29358 7.71375 7.70582 7.45991 7.95966L4.45991 10.9597C4.20607 11.2135 3.79383 11.2135 3.53999 10.9597L0.53999 7.95966L0.456982 7.85713C0.290536 7.60484 0.317934 7.2618 0.53999 7.03974C0.762046 6.81769 1.10509 6.79029 1.35737 6.95674L1.45991 7.03974L3.34956 8.92939V2.57002L1.45991 4.45966C1.20607 4.71351 0.793831 4.71351 0.53999 4.45966C0.286149 4.20582 0.286149 3.79358 0.53999 3.53974L3.53999 0.539743L3.64253 0.456735Z" fill="black"/>
</svg>
